<svg xmlns="http://www.w3.org/2000/svg" width="2.7in" height="67.2" viewBox="0 0 192.5 53.2"><path fill="#231f20" d="M1.9 26.1a11.9 11.9 0 0 1 1.8-6 12.3 12.3 0 0 1 4-3.8 17.6 17.6 0 0 1 5.5-2.1 31.4 31.4 0 0 1 6.2-.6 41.8 41.8 0 0 1 5.7.4 17.4 17.4 0 0 1 5.3 1.5 10.4 10.4 0 0 1 3.9 3.2 9 9 0 0 1 1.5 5.4v19.5a38.8 38.8 0 0 0 .3 4.8 8.7 8.7 0 0 0 1 3.5H26.6a14.5 14.5 0 0 1-.5-1.8 15.2 15.2 0 0 1-.3-1.8 13.3 13.3 0 0 1-5.8 3.5 23.1 23.1 0 0 1-6.8 1 18.3 18.3 0 0 1-5-.6 11.4 11.4 0 0 1-4-2 9.4 9.4 0 0 1-2.7-3.5 11.7 11.7 0 0 1-1-5 10.8 10.8 0 0 1 1.1-5.2 9.3 9.3 0 0 1 2.9-3.3 12.9 12.9 0 0 1 4-1.8l4.6-1 4.5-.6 4-.6a6.9 6.9 0 0 0 2.7-1.3 2.8 2.8 0 0 0 .9-2.4 5.4 5.4 0 0 0-.5-2.6 4 4 0 0 0-1.4-1.5 5.7 5.7 0 0 0-2.1-.7l-2.6-.2a7.8 7.8 0 0 0-4.8 1.3 5.8 5.8 0 0 0-2 4.3zm23.6 7.6a4.6 4.6 0 0 1-1.6.9l-2.1.5-2.3.4-2.4.4-2.3.6a6.7 6.7 0 0 0-1.9 1 4.6 4.6 0 0 0-1.3 1.5 5 5 0 0 0-.5 2.4 4.8 4.8 0 0 0 .5 2.3 3.9 3.9 0 0 0 1.2 1.3 5.8 5.8 0 0 0 2 .8l2.4.2a9 9 0 0 0 4.7-1 6.8 6.8 0 0 0 2.4-2.4 7.7 7.7 0 0 0 1-2.8 19.7 19.7 0 0 0 .2-2.3zM52.8.4v18.8h.2a10.9 10.9 0 0 1 5.1-4.2 17.2 17.2 0 0 1 6.7-1.3 14.2 14.2 0 0 1 10.5 4.7 18.1 18.1 0 0 1 3.6 6.1 25.5 25.5 0 0 1 1.4 8.8 25.5 25.5 0 0 1-1.5 8.7 18 18 0 0 1-3.6 6.1 14.2 14.2 0 0 1-10.5 4.7 19.6 19.6 0 0 1-7.3-1.3 9.3 9.3 0 0 1-4.9-4.4h-.1v4.8h-9.8V.4zm16.6 28.3a11.9 11.9 0 0 0-1.6-3.8 8.3 8.3 0 0 0-2.7-2.6 8.3 8.3 0 0 0-7.8 0 8.2 8.2 0 0 0-2.7 2.6 11.9 11.9 0 0 0-1.6 3.8 19.9 19.9 0 0 0-.5 4.5 19.5 19.5 0 0 0 .5 4.5 11.8 11.8 0 0 0 1.6 3.8 8.2 8.2 0 0 0 2.7 2.6 8.3 8.3 0 0 0 7.8 0 8.3 8.3 0 0 0 2.7-2.6 11.8 11.8 0 0 0 1.6-3.8 19.6 19.6 0 0 0 .5-4.5 19.9 19.9 0 0 0-.5-4.5zm17-3.5A17 17 0 0 1 96.3 15a21.2 21.2 0 0 1 7.9-1.4 21.5 21.5 0 0 1 8 1.4 17 17 0 0 1 10 10.2 22.9 22.9 0 0 1 1.4 8.1 22.6 22.6 0 0 1-1.4 8.1 17.5 17.5 0 0 1-3.9 6.2 16.9 16.9 0 0 1-6.1 3.9 22 22 0 0 1-8 1.4 21.8 21.8 0 0 1-7.9-1.4 17 17 0 0 1-6-3.9 17.4 17.4 0 0 1-3.9-6.2 22.5 22.5 0 0 1-1.4-8.1 22.8 22.8 0 0 1 1.4-8.1zm9.3 12.5a11.6 11.6 0 0 0 1.5 3.8 7.8 7.8 0 0 0 2.8 2.7 8.5 8.5 0 0 0 4.3 1 8.7 8.7 0 0 0 4.4-1 7.8 7.8 0 0 0 2.8-2.7 11.6 11.6 0 0 0 1.5-3.8 21.8 21.8 0 0 0 .4-4.4 22.3 22.3 0 0 0-.4-4.4 11.2 11.2 0 0 0-1.5-3.8 8.2 8.2 0 0 0-2.8-2.7 8.4 8.4 0 0 0-4.4-1 7.9 7.9 0 0 0-7.1 3.7 11.2 11.2 0 0 0-1.5 3.8 22.3 22.3 0 0 0-.4 4.4 21.8 21.8 0 0 0 .4 4.3zm58.5 14.1v-5.1h-.2a11.5 11.5 0 0 1-5 4.7 14.9 14.9 0 0 1-6.3 1.4 17.9 17.9 0 0 1-6.7-1.1 9.7 9.7 0 0 1-4.1-3.1 12 12 0 0 1-2.1-4.8 30 30 0 0 1-.6-6.3V14.6h10.2v21q0 4.6 1.4 6.9t5.1 2.3q4.2 0 6-2.5t1.9-8.2V14.6H164v37.2zm37.9-37.2v6.8h-7.5v18.5q0 2.6.9 3.5t3.5.9h1.7l1.5-.2V52l-2.9.3h-3.1a29.9 29.9 0 0 1-4.5-.3 10.6 10.6 0 0 1-3.7-1.3 6.7 6.7 0 0 1-2.6-2.7 9.5 9.5 0 0 1-.9-4.5v-22h-6.2v-6.9h6.2V3.5h10.2v11.1z"/></svg>