<svg xmlns="http://www.w3.org/2000/svg" width="2.7in" height="1.8in" viewBox="0 0 193.4 130.5"><path fill="#231f20" d="M11.3.8v18.7h.1a10.9 10.9 0 0 1 5.1-4.2 17.2 17.2 0 0 1 6.7-1.3 14.2 14.2 0 0 1 10.5 4.7 18.1 18.1 0 0 1 3.6 6.1 25.5 25.5 0 0 1 1.4 8.8 25.5 25.5 0 0 1-1.4 8.8 18 18 0 0 1-3.6 6.1 14.2 14.2 0 0 1-10.5 4.7 19.6 19.6 0 0 1-7.3-1.3 9.3 9.3 0 0 1-4.9-4.4h-.1v4.8H1.1V.8zm16.6 28.3a11.9 11.9 0 0 0-1.6-3.8 8.3 8.3 0 0 0-2.7-2.6 7.5 7.5 0 0 0-3.9-1 7.5 7.5 0 0 0-3.9 1 8.2 8.2 0 0 0-2.8 2.6 11.9 11.9 0 0 0-1.6 3.8 19.9 19.9 0 0 0-.5 4.5 19.6 19.6 0 0 0 .5 4.5 11.8 11.8 0 0 0 1.6 3.8 8.2 8.2 0 0 0 2.7 2.6 7.5 7.5 0 0 0 3.9 1 7.5 7.5 0 0 0 3.9-1 8.3 8.3 0 0 0 2.7-2.6 11.9 11.9 0 0 0 1.6-3.8 19.6 19.6 0 0 0 .5-4.5 19.9 19.9 0 0 0-.4-4.5zM54.8 15v6.9h.1a12.6 12.6 0 0 1 1.9-3.2 12.8 12.8 0 0 1 2.8-2.5 13.7 13.7 0 0 1 3.4-1.6 12.2 12.2 0 0 1 3.7-.6 8 8 0 0 1 2.2.4v9.5l-1.7-.3h-1.8a10.9 10.9 0 0 0-4.8.9 8.2 8.2 0 0 0-3.1 2.5 10.2 10.2 0 0 0-1.7 3.8 20.6 20.6 0 0 0-.5 4.7v16.7H45.1V15zm17.8 11.5a11.9 11.9 0 0 1 1.8-6 12.3 12.3 0 0 1 4-3.8 17.6 17.6 0 0 1 5.6-2.1 31.4 31.4 0 0 1 6.2-.6 41.9 41.9 0 0 1 5.7.4 17.4 17.4 0 0 1 5.3 1.5 10.4 10.4 0 0 1 3.9 3.2 9 9 0 0 1 1.5 5.4V44a38.8 38.8 0 0 0 .3 4.8 8.7 8.7 0 0 0 1 3.5H97.4a14.5 14.5 0 0 1-.5-1.8 15.2 15.2 0 0 1-.3-1.8 13.3 13.3 0 0 1-5.8 3.5 23.1 23.1 0 0 1-6.8 1 18.3 18.3 0 0 1-5-.6 11.4 11.4 0 0 1-4-2 9.4 9.4 0 0 1-2.5-3.6 11.7 11.7 0 0 1-1-5 10.8 10.8 0 0 1 1.1-5.2 9.3 9.3 0 0 1 2.9-3.3 12.9 12.9 0 0 1 4-1.8l4.6-1 4.5-.6 4-.6a6.9 6.9 0 0 0 2.7-1.3 2.8 2.8 0 0 0 .9-2.4 5.4 5.4 0 0 0-.5-2.6 4 4 0 0 0-1.4-1.5 5.7 5.7 0 0 0-2.1-.7l-2.6-.2a7.8 7.8 0 0 0-4.8 1.3 5.8 5.8 0 0 0-2 4.3zM96.2 34a4.6 4.6 0 0 1-1.6.9l-2.1.5-2.3.4-2.4.4-2.3.6a6.7 6.7 0 0 0-1.9 1 4.6 4.6 0 0 0-1.3 1.5 5 5 0 0 0-.5 2.4 4.8 4.8 0 0 0 .5 2.3 3.9 3.9 0 0 0 1.4 1.5 5.8 5.8 0 0 0 2 .8l2.4.2a9 9 0 0 0 4.7-1 6.8 6.8 0 0 0 2.3-2.5 7.7 7.7 0 0 0 1-2.8 19.7 19.7 0 0 0 .2-2.3zm27.9-19v5.2h.2a11.7 11.7 0 0 1 5-4.7 14.6 14.6 0 0 1 6.3-1.5 17.4 17.4 0 0 1 6.7 1.1 10 10 0 0 1 4.1 3.1 12 12 0 0 1 2.1 4.8 30.1 30.1 0 0 1 .6 6.3v22.9h-10v-21q0-4.6-1.4-6.9t-5.1-2.3q-4.2 0-6 2.5t-1.9 8.2v19.5h-10.3V15zm59.4 32.5a10.5 10.5 0 0 1-4.7 4.4 15.7 15.7 0 0 1-6.6 1.3 15.9 15.9 0 0 1-7.3-1.6 14.7 14.7 0 0 1-5.2-4.4 19.9 19.9 0 0 1-3.1-6.4 26.7 26.7 0 0 1-1-7.5 25.1 25.1 0 0 1 1-7.2 18.8 18.8 0 0 1 3.1-6.2A15 15 0 0 1 172 14a14.6 14.6 0 0 1 6.3 1.4 11 11 0 0 1 4.7 4.1h.1V.8h10.2v51.4h-9.7v-4.7zm-.4-18.4a10.8 10.8 0 0 0-1.5-3.7 8.3 8.3 0 0 0-2.7-2.6 7.9 7.9 0 0 0-4.2-1 8.3 8.3 0 0 0-4.2 1 8 8 0 0 0-2.8 2.7 11.8 11.8 0 0 0-1.5 3.8 20.5 20.5 0 0 0-.5 4.4 18.9 18.9 0 0 0 .5 4.3 11.8 11.8 0 0 0 1.6 3.9 9 9 0 0 0 2.8 2.7 7.6 7.6 0 0 0 4.1 1 8.1 8.1 0 0 0 4.2-1 7.7 7.7 0 0 0 2.7-2.7A12.1 12.1 0 0 0 183 38a22.7 22.7 0 0 0 .4-4.5 22.2 22.2 0 0 0-.3-4.4zM1.4 73.2v-8.4h10.2v8.4zM11.6 79v37.2H1.4V79zm17.8 0v5.2h.2a11.7 11.7 0 0 1 5-4.7A14.6 14.6 0 0 1 41 78a17.4 17.4 0 0 1 6.7 1.1 10 10 0 0 1 4.1 3.1A12 12 0 0 1 54 87a30.1 30.1 0 0 1 .6 6.3v22.9H44.3v-21q0-4.6-1.4-6.9T37.8 86q-4.2 0-6 2.5t-1.9 8.2v19.5H19.6V79zm68.1 40a12.6 12.6 0 0 1-2.6 5.4 15.7 15.7 0 0 1-5.8 4.2 25.2 25.2 0 0 1-10.2 1.7 23.8 23.8 0 0 1-5.6-.7 17.7 17.7 0 0 1-5.2-2.1 12.7 12.7 0 0 1-3.9-3.7 10.7 10.7 0 0 1-1.8-5.4h10.2a5.8 5.8 0 0 0 2.8 4 10.1 10.1 0 0 0 4.8 1.1q4.3 0 6.3-2.6a10.2 10.2 0 0 0 1.9-6.6v-4.9h-.1a10.1 10.1 0 0 1-4.7 4.4 15.3 15.3 0 0 1-6.4 1.4 16.3 16.3 0 0 1-7.2-1.5 13.6 13.6 0 0 1-5-4 16.8 16.8 0 0 1-2.8-6 28.3 28.3 0 0 1-.9-7.2 23.2 23.2 0 0 1 1-6.9 18.1 18.1 0 0 1 3.1-5.9 14.8 14.8 0 0 1 5-4.1 15 15 0 0 1 6.8-1.6 14.4 14.4 0 0 1 6.4 1.4 11.1 11.1 0 0 1 4.7 4.6h.1v-5h9.7v34.8a25 25 0 0 1-.6 5.2zm-14-12.4a8 8 0 0 0 2.7-2.3 10.2 10.2 0 0 0 1.6-3.3 13.6 13.6 0 0 0 .5-3.9 21.1 21.1 0 0 0-.4-4.4 10.9 10.9 0 0 0-1.4-3.6 7.5 7.5 0 0 0-2.7-2.5 8.4 8.4 0 0 0-4.2-.9 7.5 7.5 0 0 0-3.7.9 7.8 7.8 0 0 0-2.6 2.3 9.9 9.9 0 0 0-1.5 3.4 16.7 16.7 0 0 0-.5 4 20.3 20.3 0 0 0 .4 4 10.8 10.8 0 0 0 1.4 3.6 8 8 0 0 0 2.6 2.6 7.2 7.2 0 0 0 4 1 8.1 8.1 0 0 0 3.8-.9z"/></svg>