<svg xmlns="http://www.w3.org/2000/svg" width="1.8in" height="1.4in" viewBox="0 0 131.3 103.2"><path fill="#231f20" d="M21.7 8.5a7.2 7.2 0 0 0-4.1 1.1 8.9 8.9 0 0 0-2.7 2.9 12.4 12.4 0 0 0-1.5 3.9 21.1 21.1 0 0 0-.4 4.2 20.2 20.2 0 0 0 .4 4.1 12.7 12.7 0 0 0 1.4 3.8 8.1 8.1 0 0 0 2.6 2.8 7.2 7.2 0 0 0 4 1.1 7.5 7.5 0 0 0 5.7-2.1 9.7 9.7 0 0 0 2.5-5.5h9.9q-1 7.4-5.8 11.3t-12.2 3.8a20.4 20.4 0 0 1-7.7-1.4 17 17 0 0 1-5.9-3.9 17.8 17.8 0 0 1-3.8-6 20.8 20.8 0 0 1-1.4-7.7 24.8 24.8 0 0 1 1.3-8 18 18 0 0 1 3.7-6.4 17 17 0 0 1 6-4.2 20.3 20.3 0 0 1 8-1.5 23.4 23.4 0 0 1 6.4.9 17 17 0 0 1 5.5 2.6 14.1 14.1 0 0 1 3.9 4.4 14 14 0 0 1 1.7 6.2h-10q-1-6.4-7.5-6.4zm22.9 3.8a17 17 0 0 1 9.9-10.1A21.3 21.3 0 0 1 62.4.8a21.6 21.6 0 0 1 8 1.4 17 17 0 0 1 10 10.2 22.9 22.9 0 0 1 1.4 8.1 22.6 22.6 0 0 1-1.4 8.1 17.5 17.5 0 0 1-3.9 6.2 16.9 16.9 0 0 1-6.1 3.9 22.1 22.1 0 0 1-8 1.4 21.8 21.8 0 0 1-7.9-1.4 17 17 0 0 1-6-3.9 17.5 17.5 0 0 1-3.9-6.2 22.5 22.5 0 0 1-1.4-8.1 22.8 22.8 0 0 1 1.4-8.2zm9.3 12.5a11.6 11.6 0 0 0 1.5 3.8 7.8 7.8 0 0 0 2.8 2.7 8.5 8.5 0 0 0 4.3 1 8.7 8.7 0 0 0 4.4-1 7.8 7.8 0 0 0 2.8-2.7 11.6 11.6 0 0 0 1.5-3.8 21.8 21.8 0 0 0 .4-4.4 22.3 22.3 0 0 0-.4-4.4 11.2 11.2 0 0 0-1.5-3.8 8.2 8.2 0 0 0-2.8-2.7 8.4 8.4 0 0 0-4.4-1 7.9 7.9 0 0 0-7.1 3.7 11.2 11.2 0 0 0-1.5 3.8 22.3 22.3 0 0 0-.4 4.4 21.8 21.8 0 0 0 .4 4.4zm43.2-23V7h.2a11.7 11.7 0 0 1 5-4.7 14.6 14.6 0 0 1 6.4-1.5 17.4 17.4 0 0 1 6.7 1.1 10 10 0 0 1 4.1 3.1 12 12 0 0 1 2.1 4.8 30 30 0 0 1 .6 6.3V39H112V18q0-4.6-1.4-6.9t-5.1-2.3q-4.2 0-6 2.5t-1.9 8.2V39H87.3V1.8zm-72.8 63v6.8h-7.5v18.5q0 2.6.9 3.5t3.5.9h1.7l1.5-.2v7.7l-2.9.3h-3.1a29.9 29.9 0 0 1-4.5-.3 10.6 10.6 0 0 1-3.7-1.3A6.7 6.7 0 0 1 7.6 98a9.5 9.5 0 0 1-.9-4.5v-22H.4v-6.7h6.2V53.6h10.2v11.2zm4.4 11.4a11.9 11.9 0 0 1 1.8-6 12.2 12.2 0 0 1 4-3.8 17.6 17.6 0 0 1 5.5-2.1 31.4 31.4 0 0 1 6.2-.6 41.9 41.9 0 0 1 5.7.4 17.5 17.5 0 0 1 5.3 1.5 10.4 10.4 0 0 1 3.9 3.2 9 9 0 0 1 1.5 5.4v19.5a38.8 38.8 0 0 0 .3 4.8 8.7 8.7 0 0 0 1 3.5H53.5a14.5 14.5 0 0 1-.5-1.8 15.2 15.2 0 0 1-.3-1.8 13.3 13.3 0 0 1-5.8 3.5 23.2 23.2 0 0 1-6.8 1 18.3 18.3 0 0 1-5-.6 11.4 11.4 0 0 1-4-2 9.4 9.4 0 0 1-2.7-3.5 11.7 11.7 0 0 1-1-5 10.8 10.8 0 0 1 1.1-5.2 9.3 9.3 0 0 1 2.9-3.3 12.9 12.9 0 0 1 4-1.8l4.6-1 4.5-.6 4-.6a6.9 6.9 0 0 0 2.7-1.3 2.8 2.8 0 0 0 .9-2.4 5.4 5.4 0 0 0-.5-2.6 4 4 0 0 0-1.4-1.5 5.7 5.7 0 0 0-2.1-.7l-2.6-.2a7.8 7.8 0 0 0-4.5 1.3 5.8 5.8 0 0 0-2 4.3zm23.6 7.6a4.6 4.6 0 0 1-1.6.9l-2.1.5-2.3.4-2.4.4-2.3.6a6.7 6.7 0 0 0-1.9 1 4.6 4.6 0 0 0-1.4 1.4 5 5 0 0 0-.5 2.4 4.8 4.8 0 0 0 .5 2.3 3.9 3.9 0 0 0 1.4 1.5 5.8 5.8 0 0 0 2 .8l2.4.2a9 9 0 0 0 4.7-1 6.7 6.7 0 0 0 2.4-2.4 7.7 7.7 0 0 0 1-2.8 19.7 19.7 0 0 0 .2-2.3zM87 71.5a7.2 7.2 0 0 0-4.1 1.1 8.9 8.9 0 0 0-2.7 2.9 12.4 12.4 0 0 0-1.5 3.9 21.1 21.1 0 0 0-.4 4.2 20.2 20.2 0 0 0 .4 4.1 12.7 12.7 0 0 0 1.4 3.8 8.1 8.1 0 0 0 2.6 2.8 7.2 7.2 0 0 0 4 1.1 7.5 7.5 0 0 0 5.7-2.1 9.7 9.7 0 0 0 2.5-5.5h9.9q-1 7.4-5.8 11.3T86.8 103a20.4 20.4 0 0 1-7.7-1.4 17 17 0 0 1-5.9-3.9 17.8 17.8 0 0 1-3.8-6A20.8 20.8 0 0 1 68 84a24.8 24.8 0 0 1 1.3-8 18 18 0 0 1 3.7-6.5 17 17 0 0 1 6-4.2 20.3 20.3 0 0 1 8.1-1.5 23.4 23.4 0 0 1 6.4.9 17 17 0 0 1 5.5 2.6 13.6 13.6 0 0 1 5.7 10.6h-10q-1.1-6.4-7.7-6.4zm43.7-6.7v6.8h-7.5v18.5q0 2.6.9 3.5t3.5.9h1.7l1.5-.2v7.7l-2.9.3h-3.1a29.9 29.9 0 0 1-4.5-.3 10.6 10.6 0 0 1-3.7-1.3A6.7 6.7 0 0 1 114 98a9.5 9.5 0 0 1-.9-4.5v-22h-6.2v-6.7h6.1V53.6h10.2v11.2z"/></svg>