<svg xmlns="http://www.w3.org/2000/svg" id="Layer_1" width="2.8in" height="1.8in" viewBox="0 0 204.4 131.2"><path fill="#231f20" d="M10.7 15.8v4.8h.1a11.2 11.2 0 0 1 4.8-4.4 14.6 14.6 0 0 1 6.4-1.4 16.1 16.1 0 0 1 7.6 1.7 15.6 15.6 0 0 1 5.3 4.4 18.6 18.6 0 0 1 3.1 6.4 28.3 28.3 0 0 1 1 7.6 25.6 25.6 0 0 1-1 7.2 18.3 18.3 0 0 1-3.1 6.1 15.1 15.1 0 0 1-5.1 4.2 15.4 15.4 0 0 1-7.2 1.6 14.5 14.5 0 0 1-6.4-1.4 12.1 12.1 0 0 1-4.8-4.1h-.1V66H1V15.8zM24 45.3a8.2 8.2 0 0 0 2.7-2.6 10.8 10.8 0 0 0 1.5-3.8 22.3 22.3 0 0 0 .4-4.4 20.7 20.7 0 0 0-.5-4.4 11.7 11.7 0 0 0-1.5-3.9 8.6 8.6 0 0 0-2.8-2.7 7.7 7.7 0 0 0-4.1-1 7.9 7.9 0 0 0-4.2 1 8.4 8.4 0 0 0-2.7 2.7 11.2 11.2 0 0 0-1.5 3.8 22.7 22.7 0 0 0-.4 4.5 20.6 20.6 0 0 0 .5 4.4 11.3 11.3 0 0 0 1.5 3.8 7.9 7.9 0 0 0 6.9 3.6 8.1 8.1 0 0 0 4.2-1zm20.6-18.1a11.9 11.9 0 0 1 1.8-6 12.3 12.3 0 0 1 4-3.8 17.6 17.6 0 0 1 5.5-2.1 31.4 31.4 0 0 1 6.2-.6 41.8 41.8 0 0 1 5.7.4 17.4 17.4 0 0 1 5.2 1.6 10.4 10.4 0 0 1 3.9 3.2 9 9 0 0 1 1.5 5.4v19.4a38.8 38.8 0 0 0 .3 4.8 8.7 8.7 0 0 0 1 3.5H69.3a14.5 14.5 0 0 1-.5-1.8 15.2 15.2 0 0 1-.3-1.8 13.3 13.3 0 0 1-5.8 3.5 23.1 23.1 0 0 1-6.8 1 18.3 18.3 0 0 1-5-.6 11.4 11.4 0 0 1-4-2 9.4 9.4 0 0 1-2.7-3.5 11.7 11.7 0 0 1-1-5 10.8 10.8 0 0 1 1.1-5.2 9.3 9.3 0 0 1 2.9-3.3 12.9 12.9 0 0 1 4-1.8l4.6-1 4.5-.6 4-.6A6.9 6.9 0 0 0 67 29a2.8 2.8 0 0 0 .9-2.4 5.4 5.4 0 0 0-.5-2.6 4 4 0 0 0-1.4-1.5 5.7 5.7 0 0 0-2.1-.7l-2.6-.2a7.8 7.8 0 0 0-4.8 1.3 5.8 5.8 0 0 0-2 4.3zm23.6 7.6a4.6 4.6 0 0 1-1.6.9l-2.1.5-2.3.4-2.4.4-2.3.6a6.7 6.7 0 0 0-1.9 1 4.6 4.6 0 0 0-1.5 1.4 5 5 0 0 0-.5 2.4 4.8 4.8 0 0 0 .5 2.3 3.9 3.9 0 0 0 1.4 1.5 5.8 5.8 0 0 0 2 .8l2.4.2a9 9 0 0 0 4.7-1 6.8 6.8 0 0 0 2.4-2.5 7.7 7.7 0 0 0 1-2.8 19.7 19.7 0 0 0 .2-2.3zm35.9-12.3a7.2 7.2 0 0 0-4.1 1.1 8.9 8.9 0 0 0-2.7 2.9 12.4 12.4 0 0 0-1.5 3.9 21.1 21.1 0 0 0-.4 4.2 20.2 20.2 0 0 0 .4 4.1 12.7 12.7 0 0 0 1.4 3.8 8.1 8.1 0 0 0 2.6 2.8 7.2 7.2 0 0 0 4 1.1 7.5 7.5 0 0 0 5.7-2.1 9.7 9.7 0 0 0 2.5-5.5h9.9q-1 7.4-5.8 11.3T104 53.9a20.4 20.4 0 0 1-7.7-1.4 17 17 0 0 1-5.9-3.9 17.8 17.8 0 0 1-3.8-6 20.8 20.8 0 0 1-1.4-7.7 24.8 24.8 0 0 1 1.3-8 18 18 0 0 1 3.7-6.4 17 17 0 0 1 6-4.2 20.3 20.3 0 0 1 8.1-1.5 23.3 23.3 0 0 1 6.4.9 17 17 0 0 1 5.5 2.6 13.6 13.6 0 0 1 5.7 10.6h-10q-1.2-6.4-7.8-6.4zm34.7-20.9v27.6l12.9-13.4h12.1l-14 13.7L165.4 53H153l-10.2-16.6-4 3.8V53h-10.2V1.6zm29.7 25.6a11.9 11.9 0 0 1 1.8-6 12.3 12.3 0 0 1 4-3.8 17.6 17.6 0 0 1 5.5-2.1 31.4 31.4 0 0 1 6.2-.6 41.8 41.8 0 0 1 5.7.4 17.4 17.4 0 0 1 5.3 1.5 10.4 10.4 0 0 1 3.9 3.2 9 9 0 0 1 1.5 5.4v19.5a38.8 38.8 0 0 0 .3 4.8 8.7 8.7 0 0 0 1 3.5h-10.4a14.5 14.5 0 0 1-.5-1.8 15.2 15.2 0 0 1-.3-1.8 13.3 13.3 0 0 1-5.8 3.5 23.1 23.1 0 0 1-6.8 1 18.3 18.3 0 0 1-5-.6 11.4 11.4 0 0 1-4-2 9.4 9.4 0 0 1-2.7-3.5 11.7 11.7 0 0 1-1-5 10.8 10.8 0 0 1 1.1-5.2 9.3 9.3 0 0 1 2.9-3.3 12.9 12.9 0 0 1 4-1.8l4.6-1 4.5-.6 4-.6A6.9 6.9 0 0 0 191 29a2.8 2.8 0 0 0 .9-2.4 5.4 5.4 0 0 0-.5-2.6 4 4 0 0 0-1.4-1.5 5.7 5.7 0 0 0-2.1-.7l-2.6-.2a7.8 7.8 0 0 0-4.8 1.3 5.8 5.8 0 0 0-2 4.3zm23.6 7.6a4.6 4.6 0 0 1-1.6.9l-2.1.5-2.3.4-2.4.4-2.3.6a6.7 6.7 0 0 0-1.9 1 4.6 4.6 0 0 0-1.3 1.5 5 5 0 0 0-.5 2.4 4.8 4.8 0 0 0 .5 2.3 3.9 3.9 0 0 0 1.4 1.5 5.8 5.8 0 0 0 2 .8l2.4.2a9 9 0 0 0 4.7-1 6.8 6.8 0 0 0 2.4-2.4 7.7 7.7 0 0 0 1-2.8 19.7 19.7 0 0 0 .2-2.3zM36.2 119.7a12.6 12.6 0 0 1-2.6 5.4 15.7 15.7 0 0 1-5.8 4.2 25.1 25.1 0 0 1-10.3 1.7 23.8 23.8 0 0 1-5.6-.7 17.7 17.7 0 0 1-5.2-2.1 12.7 12.7 0 0 1-3.9-3.7 10.7 10.7 0 0 1-1.8-5.4h10.2a5.8 5.8 0 0 0 2.8 4 10.1 10.1 0 0 0 4.8 1.1q4.3 0 6.3-2.6A10.2 10.2 0 0 0 27 115v-4.9h-.1a10.1 10.1 0 0 1-4.7 4.4 15.3 15.3 0 0 1-6.4 1.4 16.3 16.3 0 0 1-7.2-1.5 13.6 13.6 0 0 1-5-4 16.8 16.8 0 0 1-2.8-6 28.3 28.3 0 0 1-.9-7.2 23.2 23.2 0 0 1 1-6.9 18.1 18.1 0 0 1 3.1-6 14.8 14.8 0 0 1 5-4.1 15 15 0 0 1 6.9-1.5 14.4 14.4 0 0 1 6.4 1.4 11.1 11.1 0 0 1 4.6 4.6h.1v-5h9.7v34.8a25 25 0 0 1-.5 5.2zm-14-12.4a8 8 0 0 0 2.7-2.3 10.2 10.2 0 0 0 1.6-3.3 13.6 13.6 0 0 0 .5-3.9 21.1 21.1 0 0 0-.4-4.4 10.9 10.9 0 0 0-1.4-3.6 7.5 7.5 0 0 0-2.7-2.5 8.4 8.4 0 0 0-4.2-.9 7.5 7.5 0 0 0-3.7.9 7.8 7.8 0 0 0-2.6 2.3 9.9 9.9 0 0 0-1.5 3.4 16.7 16.7 0 0 0-.5 4 20.3 20.3 0 0 0 .4 4 10.8 10.8 0 0 0 1.4 3.6 8 8 0 0 0 2.6 2.6 7.2 7.2 0 0 0 4 1 8.1 8.1 0 0 0 3.8-.9zM45.3 74v-8.4h10.2V74zm10.2 5.8V117H45.3V79.8zm17.8 0V85h.2a11.7 11.7 0 0 1 5-4.7 14.6 14.6 0 0 1 6.3-1.5 17.4 17.4 0 0 1 6.7 1.1 10 10 0 0 1 4.3 3.1 12 12 0 0 1 2.1 4.8 30.1 30.1 0 0 1 .6 6.3V117H88.3V96q0-4.6-1.4-6.9t-5.1-2.3q-4.2 0-6 2.5t-1.9 8.2V117H63.6V79.8zm68.1 39.9a12.6 12.6 0 0 1-2.6 5.4 15.7 15.7 0 0 1-5.8 4.2 25.1 25.1 0 0 1-10.2 1.7 23.8 23.8 0 0 1-5.6-.7 17.7 17.7 0 0 1-5.2-2.1 12.7 12.7 0 0 1-3.9-3.7 10.7 10.7 0 0 1-1.8-5.4h10.2a5.8 5.8 0 0 0 2.8 4 10.1 10.1 0 0 0 4.8 1.1q4.3 0 6.3-2.6a10.2 10.2 0 0 0 1.9-6.6v-4.9h-.1a10.1 10.1 0 0 1-4.7 4.4 15.3 15.3 0 0 1-6.4 1.4 16.3 16.3 0 0 1-7.2-1.5 13.6 13.6 0 0 1-5-4 16.8 16.8 0 0 1-2.8-6 28.3 28.3 0 0 1-.9-7.2 23.2 23.2 0 0 1 1-6.9 18.1 18.1 0 0 1 3.1-5.9 14.8 14.8 0 0 1 5-4.1 15 15 0 0 1 6.9-1.5 14.4 14.4 0 0 1 6.4 1.4 11.1 11.1 0 0 1 4.6 4.6h.1v-5h9.7v34.8a25 25 0 0 1-.6 5.1zm-14-12.4a8 8 0 0 0 2.7-2.3 10.2 10.2 0 0 0 1.6-3.3 13.6 13.6 0 0 0 .5-3.9 21.1 21.1 0 0 0-.4-4.4 10.9 10.9 0 0 0-1.4-3.6 7.5 7.5 0 0 0-2.7-2.5 8.4 8.4 0 0 0-4.2-.9 7.5 7.5 0 0 0-3.7.9 7.8 7.8 0 0 0-2.6 2.3 9.9 9.9 0 0 0-1.5 3.4 16.7 16.7 0 0 0-.5 4 20.3 20.3 0 0 0 .4 4 10.8 10.8 0 0 0 1.4 3.6 8 8 0 0 0 2.6 2.6 7.2 7.2 0 0 0 4 1 8.1 8.1 0 0 0 3.8-.9z"/></svg>