<svg xmlns="http://www.w3.org/2000/svg"><symbol id="branding" viewBox="0 0 193.4 130.5"><path fill="#231f20" d="M11.3.8v18.7h.1a10.9 10.9 0 0 1 5.1-4.2 17.2 17.2 0 0 1 6.7-1.3 14.2 14.2 0 0 1 10.5 4.7 18.1 18.1 0 0 1 3.6 6.1 25.5 25.5 0 0 1 1.4 8.8 25.5 25.5 0 0 1-1.4 8.8 18 18 0 0 1-3.6 6.1 14.2 14.2 0 0 1-10.5 4.7 19.6 19.6 0 0 1-7.3-1.3 9.3 9.3 0 0 1-4.9-4.4h-.1v4.8H1.1V.8zm16.6 28.3a11.9 11.9 0 0 0-1.6-3.8 8.3 8.3 0 0 0-2.7-2.6 7.5 7.5 0 0 0-3.9-1 7.5 7.5 0 0 0-3.9 1 8.2 8.2 0 0 0-2.8 2.6 11.9 11.9 0 0 0-1.6 3.8 19.9 19.9 0 0 0-.5 4.5 19.6 19.6 0 0 0 .5 4.5 11.8 11.8 0 0 0 1.6 3.8 8.2 8.2 0 0 0 2.7 2.6 7.5 7.5 0 0 0 3.9 1 7.5 7.5 0 0 0 3.9-1 8.3 8.3 0 0 0 2.7-2.6 11.9 11.9 0 0 0 1.6-3.8 19.6 19.6 0 0 0 .5-4.5 19.9 19.9 0 0 0-.4-4.5zM54.8 15v6.9h.1a12.6 12.6 0 0 1 1.9-3.2 12.8 12.8 0 0 1 2.8-2.5 13.7 13.7 0 0 1 3.4-1.6 12.2 12.2 0 0 1 3.7-.6 8 8 0 0 1 2.2.4v9.5l-1.7-.3h-1.8a10.9 10.9 0 0 0-4.8.9 8.2 8.2 0 0 0-3.1 2.5 10.2 10.2 0 0 0-1.7 3.8 20.6 20.6 0 0 0-.5 4.7v16.7H45.1V15zm17.8 11.5a11.9 11.9 0 0 1 1.8-6 12.3 12.3 0 0 1 4-3.8 17.6 17.6 0 0 1 5.6-2.1 31.4 31.4 0 0 1 6.2-.6 41.9 41.9 0 0 1 5.7.4 17.4 17.4 0 0 1 5.3 1.5 10.4 10.4 0 0 1 3.9 3.2 9 9 0 0 1 1.5 5.4V44a38.8 38.8 0 0 0 .3 4.8 8.7 8.7 0 0 0 1 3.5H97.4a14.5 14.5 0 0 1-.5-1.8 15.2 15.2 0 0 1-.3-1.8 13.3 13.3 0 0 1-5.8 3.5 23.1 23.1 0 0 1-6.8 1 18.3 18.3 0 0 1-5-.6 11.4 11.4 0 0 1-4-2 9.4 9.4 0 0 1-2.5-3.6 11.7 11.7 0 0 1-1-5 10.8 10.8 0 0 1 1.1-5.2 9.3 9.3 0 0 1 2.9-3.3 12.9 12.9 0 0 1 4-1.8l4.6-1 4.5-.6 4-.6a6.9 6.9 0 0 0 2.7-1.3 2.8 2.8 0 0 0 .9-2.4 5.4 5.4 0 0 0-.5-2.6 4 4 0 0 0-1.4-1.5 5.7 5.7 0 0 0-2.1-.7l-2.6-.2a7.8 7.8 0 0 0-4.8 1.3 5.8 5.8 0 0 0-2 4.3zM96.2 34a4.6 4.6 0 0 1-1.6.9l-2.1.5-2.3.4-2.4.4-2.3.6a6.7 6.7 0 0 0-1.9 1 4.6 4.6 0 0 0-1.3 1.5 5 5 0 0 0-.5 2.4 4.8 4.8 0 0 0 .5 2.3 3.9 3.9 0 0 0 1.4 1.5 5.8 5.8 0 0 0 2 .8l2.4.2a9 9 0 0 0 4.7-1 6.8 6.8 0 0 0 2.3-2.5 7.7 7.7 0 0 0 1-2.8 19.7 19.7 0 0 0 .2-2.3zm27.9-19v5.2h.2a11.7 11.7 0 0 1 5-4.7 14.6 14.6 0 0 1 6.3-1.5 17.4 17.4 0 0 1 6.7 1.1 10 10 0 0 1 4.1 3.1 12 12 0 0 1 2.1 4.8 30.1 30.1 0 0 1 .6 6.3v22.9h-10v-21q0-4.6-1.4-6.9t-5.1-2.3q-4.2 0-6 2.5t-1.9 8.2v19.5h-10.3V15zm59.4 32.5a10.5 10.5 0 0 1-4.7 4.4 15.7 15.7 0 0 1-6.6 1.3 15.9 15.9 0 0 1-7.3-1.6 14.7 14.7 0 0 1-5.2-4.4 19.9 19.9 0 0 1-3.1-6.4 26.7 26.7 0 0 1-1-7.5 25.1 25.1 0 0 1 1-7.2 18.8 18.8 0 0 1 3.1-6.2A15 15 0 0 1 172 14a14.6 14.6 0 0 1 6.3 1.4 11 11 0 0 1 4.7 4.1h.1V.8h10.2v51.4h-9.7v-4.7zm-.4-18.4a10.8 10.8 0 0 0-1.5-3.7 8.3 8.3 0 0 0-2.7-2.6 7.9 7.9 0 0 0-4.2-1 8.3 8.3 0 0 0-4.2 1 8 8 0 0 0-2.8 2.7 11.8 11.8 0 0 0-1.5 3.8 20.5 20.5 0 0 0-.5 4.4 18.9 18.9 0 0 0 .5 4.3 11.8 11.8 0 0 0 1.6 3.9 9 9 0 0 0 2.8 2.7 7.6 7.6 0 0 0 4.1 1 8.1 8.1 0 0 0 4.2-1 7.7 7.7 0 0 0 2.7-2.7A12.1 12.1 0 0 0 183 38a22.7 22.7 0 0 0 .4-4.5 22.2 22.2 0 0 0-.3-4.4zM1.4 73.2v-8.4h10.2v8.4zM11.6 79v37.2H1.4V79zm17.8 0v5.2h.2a11.7 11.7 0 0 1 5-4.7A14.6 14.6 0 0 1 41 78a17.4 17.4 0 0 1 6.7 1.1 10 10 0 0 1 4.1 3.1A12 12 0 0 1 54 87a30.1 30.1 0 0 1 .6 6.3v22.9H44.3v-21q0-4.6-1.4-6.9T37.8 86q-4.2 0-6 2.5t-1.9 8.2v19.5H19.6V79zm68.1 40a12.6 12.6 0 0 1-2.6 5.4 15.7 15.7 0 0 1-5.8 4.2 25.2 25.2 0 0 1-10.2 1.7 23.8 23.8 0 0 1-5.6-.7 17.7 17.7 0 0 1-5.2-2.1 12.7 12.7 0 0 1-3.9-3.7 10.7 10.7 0 0 1-1.8-5.4h10.2a5.8 5.8 0 0 0 2.8 4 10.1 10.1 0 0 0 4.8 1.1q4.3 0 6.3-2.6a10.2 10.2 0 0 0 1.9-6.6v-4.9h-.1a10.1 10.1 0 0 1-4.7 4.4 15.3 15.3 0 0 1-6.4 1.4 16.3 16.3 0 0 1-7.2-1.5 13.6 13.6 0 0 1-5-4 16.8 16.8 0 0 1-2.8-6 28.3 28.3 0 0 1-.9-7.2 23.2 23.2 0 0 1 1-6.9 18.1 18.1 0 0 1 3.1-5.9 14.8 14.8 0 0 1 5-4.1 15 15 0 0 1 6.8-1.6 14.4 14.4 0 0 1 6.4 1.4 11.1 11.1 0 0 1 4.7 4.6h.1v-5h9.7v34.8a25 25 0 0 1-.6 5.2zm-14-12.4a8 8 0 0 0 2.7-2.3 10.2 10.2 0 0 0 1.6-3.3 13.6 13.6 0 0 0 .5-3.9 21.1 21.1 0 0 0-.4-4.4 10.9 10.9 0 0 0-1.4-3.6 7.5 7.5 0 0 0-2.7-2.5 8.4 8.4 0 0 0-4.2-.9 7.5 7.5 0 0 0-3.7.9 7.8 7.8 0 0 0-2.6 2.3 9.9 9.9 0 0 0-1.5 3.4 16.7 16.7 0 0 0-.5 4 20.3 20.3 0 0 0 .4 4 10.8 10.8 0 0 0 1.4 3.6 8 8 0 0 0 2.6 2.6 7.2 7.2 0 0 0 4 1 8.1 8.1 0 0 0 3.8-.9z"/></symbol><symbol id="branding" viewBox="0 0 193.4 130.5"><path fill="#231f20" d="M11.3.8v18.7h.1a10.9 10.9 0 0 1 5.1-4.2 17.2 17.2 0 0 1 6.7-1.3 14.2 14.2 0 0 1 10.5 4.7 18.1 18.1 0 0 1 3.6 6.1 25.5 25.5 0 0 1 1.4 8.8 25.5 25.5 0 0 1-1.4 8.8 18 18 0 0 1-3.6 6.1 14.2 14.2 0 0 1-10.5 4.7 19.6 19.6 0 0 1-7.3-1.3 9.3 9.3 0 0 1-4.9-4.4h-.1v4.8H1.1V.8zm16.6 28.3a11.9 11.9 0 0 0-1.6-3.8 8.3 8.3 0 0 0-2.7-2.6 7.5 7.5 0 0 0-3.9-1 7.5 7.5 0 0 0-3.9 1 8.2 8.2 0 0 0-2.8 2.6 11.9 11.9 0 0 0-1.6 3.8 19.9 19.9 0 0 0-.5 4.5 19.6 19.6 0 0 0 .5 4.5 11.8 11.8 0 0 0 1.6 3.8 8.2 8.2 0 0 0 2.7 2.6 7.5 7.5 0 0 0 3.9 1 7.5 7.5 0 0 0 3.9-1 8.3 8.3 0 0 0 2.7-2.6 11.9 11.9 0 0 0 1.6-3.8 19.6 19.6 0 0 0 .5-4.5 19.9 19.9 0 0 0-.4-4.5zM54.8 15v6.9h.1a12.6 12.6 0 0 1 1.9-3.2 12.8 12.8 0 0 1 2.8-2.5 13.7 13.7 0 0 1 3.4-1.6 12.2 12.2 0 0 1 3.7-.6 8 8 0 0 1 2.2.4v9.5l-1.7-.3h-1.8a10.9 10.9 0 0 0-4.8.9 8.2 8.2 0 0 0-3.1 2.5 10.2 10.2 0 0 0-1.7 3.8 20.6 20.6 0 0 0-.5 4.7v16.7H45.1V15zm17.8 11.5a11.9 11.9 0 0 1 1.8-6 12.3 12.3 0 0 1 4-3.8 17.6 17.6 0 0 1 5.6-2.1 31.4 31.4 0 0 1 6.2-.6 41.9 41.9 0 0 1 5.7.4 17.4 17.4 0 0 1 5.3 1.5 10.4 10.4 0 0 1 3.9 3.2 9 9 0 0 1 1.5 5.4V44a38.8 38.8 0 0 0 .3 4.8 8.7 8.7 0 0 0 1 3.5H97.4a14.5 14.5 0 0 1-.5-1.8 15.2 15.2 0 0 1-.3-1.8 13.3 13.3 0 0 1-5.8 3.5 23.1 23.1 0 0 1-6.8 1 18.3 18.3 0 0 1-5-.6 11.4 11.4 0 0 1-4-2 9.4 9.4 0 0 1-2.5-3.6 11.7 11.7 0 0 1-1-5 10.8 10.8 0 0 1 1.1-5.2 9.3 9.3 0 0 1 2.9-3.3 12.9 12.9 0 0 1 4-1.8l4.6-1 4.5-.6 4-.6a6.9 6.9 0 0 0 2.7-1.3 2.8 2.8 0 0 0 .9-2.4 5.4 5.4 0 0 0-.5-2.6 4 4 0 0 0-1.4-1.5 5.7 5.7 0 0 0-2.1-.7l-2.6-.2a7.8 7.8 0 0 0-4.8 1.3 5.8 5.8 0 0 0-2 4.3zM96.2 34a4.6 4.6 0 0 1-1.6.9l-2.1.5-2.3.4-2.4.4-2.3.6a6.7 6.7 0 0 0-1.9 1 4.6 4.6 0 0 0-1.3 1.5 5 5 0 0 0-.5 2.4 4.8 4.8 0 0 0 .5 2.3 3.9 3.9 0 0 0 1.4 1.5 5.8 5.8 0 0 0 2 .8l2.4.2a9 9 0 0 0 4.7-1 6.8 6.8 0 0 0 2.3-2.5 7.7 7.7 0 0 0 1-2.8 19.7 19.7 0 0 0 .2-2.3zm27.9-19v5.2h.2a11.7 11.7 0 0 1 5-4.7 14.6 14.6 0 0 1 6.3-1.5 17.4 17.4 0 0 1 6.7 1.1 10 10 0 0 1 4.1 3.1 12 12 0 0 1 2.1 4.8 30.1 30.1 0 0 1 .6 6.3v22.9h-10v-21q0-4.6-1.4-6.9t-5.1-2.3q-4.2 0-6 2.5t-1.9 8.2v19.5h-10.3V15zm59.4 32.5a10.5 10.5 0 0 1-4.7 4.4 15.7 15.7 0 0 1-6.6 1.3 15.9 15.9 0 0 1-7.3-1.6 14.7 14.7 0 0 1-5.2-4.4 19.9 19.9 0 0 1-3.1-6.4 26.7 26.7 0 0 1-1-7.5 25.1 25.1 0 0 1 1-7.2 18.8 18.8 0 0 1 3.1-6.2A15 15 0 0 1 172 14a14.6 14.6 0 0 1 6.3 1.4 11 11 0 0 1 4.7 4.1h.1V.8h10.2v51.4h-9.7v-4.7zm-.4-18.4a10.8 10.8 0 0 0-1.5-3.7 8.3 8.3 0 0 0-2.7-2.6 7.9 7.9 0 0 0-4.2-1 8.3 8.3 0 0 0-4.2 1 8 8 0 0 0-2.8 2.7 11.8 11.8 0 0 0-1.5 3.8 20.5 20.5 0 0 0-.5 4.4 18.9 18.9 0 0 0 .5 4.3 11.8 11.8 0 0 0 1.6 3.9 9 9 0 0 0 2.8 2.7 7.6 7.6 0 0 0 4.1 1 8.1 8.1 0 0 0 4.2-1 7.7 7.7 0 0 0 2.7-2.7A12.1 12.1 0 0 0 183 38a22.7 22.7 0 0 0 .4-4.5 22.2 22.2 0 0 0-.3-4.4zM1.4 73.2v-8.4h10.2v8.4zM11.6 79v37.2H1.4V79zm17.8 0v5.2h.2a11.7 11.7 0 0 1 5-4.7A14.6 14.6 0 0 1 41 78a17.4 17.4 0 0 1 6.7 1.1 10 10 0 0 1 4.1 3.1A12 12 0 0 1 54 87a30.1 30.1 0 0 1 .6 6.3v22.9H44.3v-21q0-4.6-1.4-6.9T37.8 86q-4.2 0-6 2.5t-1.9 8.2v19.5H19.6V79zm68.1 40a12.6 12.6 0 0 1-2.6 5.4 15.7 15.7 0 0 1-5.8 4.2 25.2 25.2 0 0 1-10.2 1.7 23.8 23.8 0 0 1-5.6-.7 17.7 17.7 0 0 1-5.2-2.1 12.7 12.7 0 0 1-3.9-3.7 10.7 10.7 0 0 1-1.8-5.4h10.2a5.8 5.8 0 0 0 2.8 4 10.1 10.1 0 0 0 4.8 1.1q4.3 0 6.3-2.6a10.2 10.2 0 0 0 1.9-6.6v-4.9h-.1a10.1 10.1 0 0 1-4.7 4.4 15.3 15.3 0 0 1-6.4 1.4 16.3 16.3 0 0 1-7.2-1.5 13.6 13.6 0 0 1-5-4 16.8 16.8 0 0 1-2.8-6 28.3 28.3 0 0 1-.9-7.2 23.2 23.2 0 0 1 1-6.9 18.1 18.1 0 0 1 3.1-5.9 14.8 14.8 0 0 1 5-4.1 15 15 0 0 1 6.8-1.6 14.4 14.4 0 0 1 6.4 1.4 11.1 11.1 0 0 1 4.7 4.6h.1v-5h9.7v34.8a25 25 0 0 1-.6 5.2zm-14-12.4a8 8 0 0 0 2.7-2.3 10.2 10.2 0 0 0 1.6-3.3 13.6 13.6 0 0 0 .5-3.9 21.1 21.1 0 0 0-.4-4.4 10.9 10.9 0 0 0-1.4-3.6 7.5 7.5 0 0 0-2.7-2.5 8.4 8.4 0 0 0-4.2-.9 7.5 7.5 0 0 0-3.7.9 7.8 7.8 0 0 0-2.6 2.3 9.9 9.9 0 0 0-1.5 3.4 16.7 16.7 0 0 0-.5 4 20.3 20.3 0 0 0 .4 4 10.8 10.8 0 0 0 1.4 3.6 8 8 0 0 0 2.6 2.6 7.2 7.2 0 0 0 4 1 8.1 8.1 0 0 0 3.8-.9z"/></symbol><symbol id="packaging" viewBox="0 0 204.4 131.2"><path fill="#231f20" d="M10.7 15.8v4.8h.1a11.2 11.2 0 0 1 4.8-4.4 14.6 14.6 0 0 1 6.4-1.4 16.1 16.1 0 0 1 7.6 1.7 15.6 15.6 0 0 1 5.3 4.4 18.6 18.6 0 0 1 3.1 6.4 28.3 28.3 0 0 1 1 7.6 25.6 25.6 0 0 1-1 7.2 18.3 18.3 0 0 1-3.1 6.1 15.1 15.1 0 0 1-5.1 4.2 15.4 15.4 0 0 1-7.2 1.6 14.5 14.5 0 0 1-6.4-1.4 12.1 12.1 0 0 1-4.8-4.1h-.1V66H1V15.8zM24 45.3a8.2 8.2 0 0 0 2.7-2.6 10.8 10.8 0 0 0 1.5-3.8 22.3 22.3 0 0 0 .4-4.4 20.7 20.7 0 0 0-.5-4.4 11.7 11.7 0 0 0-1.5-3.9 8.6 8.6 0 0 0-2.8-2.7 7.7 7.7 0 0 0-4.1-1 7.9 7.9 0 0 0-4.2 1 8.4 8.4 0 0 0-2.7 2.7 11.2 11.2 0 0 0-1.5 3.8 22.7 22.7 0 0 0-.4 4.5 20.6 20.6 0 0 0 .5 4.4 11.3 11.3 0 0 0 1.5 3.8 7.9 7.9 0 0 0 6.9 3.6 8.1 8.1 0 0 0 4.2-1zm20.6-18.1a11.9 11.9 0 0 1 1.8-6 12.3 12.3 0 0 1 4-3.8 17.6 17.6 0 0 1 5.5-2.1 31.4 31.4 0 0 1 6.2-.6 41.8 41.8 0 0 1 5.7.4 17.4 17.4 0 0 1 5.2 1.6 10.4 10.4 0 0 1 3.9 3.2 9 9 0 0 1 1.5 5.4v19.4a38.8 38.8 0 0 0 .3 4.8 8.7 8.7 0 0 0 1 3.5H69.3a14.5 14.5 0 0 1-.5-1.8 15.2 15.2 0 0 1-.3-1.8 13.3 13.3 0 0 1-5.8 3.5 23.1 23.1 0 0 1-6.8 1 18.3 18.3 0 0 1-5-.6 11.4 11.4 0 0 1-4-2 9.4 9.4 0 0 1-2.7-3.5 11.7 11.7 0 0 1-1-5 10.8 10.8 0 0 1 1.1-5.2 9.3 9.3 0 0 1 2.9-3.3 12.9 12.9 0 0 1 4-1.8l4.6-1 4.5-.6 4-.6A6.9 6.9 0 0 0 67 29a2.8 2.8 0 0 0 .9-2.4 5.4 5.4 0 0 0-.5-2.6 4 4 0 0 0-1.4-1.5 5.7 5.7 0 0 0-2.1-.7l-2.6-.2a7.8 7.8 0 0 0-4.8 1.3 5.8 5.8 0 0 0-2 4.3zm23.6 7.6a4.6 4.6 0 0 1-1.6.9l-2.1.5-2.3.4-2.4.4-2.3.6a6.7 6.7 0 0 0-1.9 1 4.6 4.6 0 0 0-1.5 1.4 5 5 0 0 0-.5 2.4 4.8 4.8 0 0 0 .5 2.3 3.9 3.9 0 0 0 1.4 1.5 5.8 5.8 0 0 0 2 .8l2.4.2a9 9 0 0 0 4.7-1 6.8 6.8 0 0 0 2.4-2.5 7.7 7.7 0 0 0 1-2.8 19.7 19.7 0 0 0 .2-2.3zm35.9-12.3a7.2 7.2 0 0 0-4.1 1.1 8.9 8.9 0 0 0-2.7 2.9 12.4 12.4 0 0 0-1.5 3.9 21.1 21.1 0 0 0-.4 4.2 20.2 20.2 0 0 0 .4 4.1 12.7 12.7 0 0 0 1.4 3.8 8.1 8.1 0 0 0 2.6 2.8 7.2 7.2 0 0 0 4 1.1 7.5 7.5 0 0 0 5.7-2.1 9.7 9.7 0 0 0 2.5-5.5h9.9q-1 7.4-5.8 11.3T104 53.9a20.4 20.4 0 0 1-7.7-1.4 17 17 0 0 1-5.9-3.9 17.8 17.8 0 0 1-3.8-6 20.8 20.8 0 0 1-1.4-7.7 24.8 24.8 0 0 1 1.3-8 18 18 0 0 1 3.7-6.4 17 17 0 0 1 6-4.2 20.3 20.3 0 0 1 8.1-1.5 23.3 23.3 0 0 1 6.4.9 17 17 0 0 1 5.5 2.6 13.6 13.6 0 0 1 5.7 10.6h-10q-1.2-6.4-7.8-6.4zm34.7-20.9v27.6l12.9-13.4h12.1l-14 13.7L165.4 53H153l-10.2-16.6-4 3.8V53h-10.2V1.6zm29.7 25.6a11.9 11.9 0 0 1 1.8-6 12.3 12.3 0 0 1 4-3.8 17.6 17.6 0 0 1 5.5-2.1 31.4 31.4 0 0 1 6.2-.6 41.8 41.8 0 0 1 5.7.4 17.4 17.4 0 0 1 5.3 1.5 10.4 10.4 0 0 1 3.9 3.2 9 9 0 0 1 1.5 5.4v19.5a38.8 38.8 0 0 0 .3 4.8 8.7 8.7 0 0 0 1 3.5h-10.4a14.5 14.5 0 0 1-.5-1.8 15.2 15.2 0 0 1-.3-1.8 13.3 13.3 0 0 1-5.8 3.5 23.1 23.1 0 0 1-6.8 1 18.3 18.3 0 0 1-5-.6 11.4 11.4 0 0 1-4-2 9.4 9.4 0 0 1-2.7-3.5 11.7 11.7 0 0 1-1-5 10.8 10.8 0 0 1 1.1-5.2 9.3 9.3 0 0 1 2.9-3.3 12.9 12.9 0 0 1 4-1.8l4.6-1 4.5-.6 4-.6A6.9 6.9 0 0 0 191 29a2.8 2.8 0 0 0 .9-2.4 5.4 5.4 0 0 0-.5-2.6 4 4 0 0 0-1.4-1.5 5.7 5.7 0 0 0-2.1-.7l-2.6-.2a7.8 7.8 0 0 0-4.8 1.3 5.8 5.8 0 0 0-2 4.3zm23.6 7.6a4.6 4.6 0 0 1-1.6.9l-2.1.5-2.3.4-2.4.4-2.3.6a6.7 6.7 0 0 0-1.9 1 4.6 4.6 0 0 0-1.3 1.5 5 5 0 0 0-.5 2.4 4.8 4.8 0 0 0 .5 2.3 3.9 3.9 0 0 0 1.4 1.5 5.8 5.8 0 0 0 2 .8l2.4.2a9 9 0 0 0 4.7-1 6.8 6.8 0 0 0 2.4-2.4 7.7 7.7 0 0 0 1-2.8 19.7 19.7 0 0 0 .2-2.3zM36.2 119.7a12.6 12.6 0 0 1-2.6 5.4 15.7 15.7 0 0 1-5.8 4.2 25.1 25.1 0 0 1-10.3 1.7 23.8 23.8 0 0 1-5.6-.7 17.7 17.7 0 0 1-5.2-2.1 12.7 12.7 0 0 1-3.9-3.7 10.7 10.7 0 0 1-1.8-5.4h10.2a5.8 5.8 0 0 0 2.8 4 10.1 10.1 0 0 0 4.8 1.1q4.3 0 6.3-2.6A10.2 10.2 0 0 0 27 115v-4.9h-.1a10.1 10.1 0 0 1-4.7 4.4 15.3 15.3 0 0 1-6.4 1.4 16.3 16.3 0 0 1-7.2-1.5 13.6 13.6 0 0 1-5-4 16.8 16.8 0 0 1-2.8-6 28.3 28.3 0 0 1-.9-7.2 23.2 23.2 0 0 1 1-6.9 18.1 18.1 0 0 1 3.1-6 14.8 14.8 0 0 1 5-4.1 15 15 0 0 1 6.9-1.5 14.4 14.4 0 0 1 6.4 1.4 11.1 11.1 0 0 1 4.6 4.6h.1v-5h9.7v34.8a25 25 0 0 1-.5 5.2zm-14-12.4a8 8 0 0 0 2.7-2.3 10.2 10.2 0 0 0 1.6-3.3 13.6 13.6 0 0 0 .5-3.9 21.1 21.1 0 0 0-.4-4.4 10.9 10.9 0 0 0-1.4-3.6 7.5 7.5 0 0 0-2.7-2.5 8.4 8.4 0 0 0-4.2-.9 7.5 7.5 0 0 0-3.7.9 7.8 7.8 0 0 0-2.6 2.3 9.9 9.9 0 0 0-1.5 3.4 16.7 16.7 0 0 0-.5 4 20.3 20.3 0 0 0 .4 4 10.8 10.8 0 0 0 1.4 3.6 8 8 0 0 0 2.6 2.6 7.2 7.2 0 0 0 4 1 8.1 8.1 0 0 0 3.8-.9zM45.3 74v-8.4h10.2V74zm10.2 5.8V117H45.3V79.8zm17.8 0V85h.2a11.7 11.7 0 0 1 5-4.7 14.6 14.6 0 0 1 6.3-1.5 17.4 17.4 0 0 1 6.7 1.1 10 10 0 0 1 4.3 3.1 12 12 0 0 1 2.1 4.8 30.1 30.1 0 0 1 .6 6.3V117H88.3V96q0-4.6-1.4-6.9t-5.1-2.3q-4.2 0-6 2.5t-1.9 8.2V117H63.6V79.8zm68.1 39.9a12.6 12.6 0 0 1-2.6 5.4 15.7 15.7 0 0 1-5.8 4.2 25.1 25.1 0 0 1-10.2 1.7 23.8 23.8 0 0 1-5.6-.7 17.7 17.7 0 0 1-5.2-2.1 12.7 12.7 0 0 1-3.9-3.7 10.7 10.7 0 0 1-1.8-5.4h10.2a5.8 5.8 0 0 0 2.8 4 10.1 10.1 0 0 0 4.8 1.1q4.3 0 6.3-2.6a10.2 10.2 0 0 0 1.9-6.6v-4.9h-.1a10.1 10.1 0 0 1-4.7 4.4 15.3 15.3 0 0 1-6.4 1.4 16.3 16.3 0 0 1-7.2-1.5 13.6 13.6 0 0 1-5-4 16.8 16.8 0 0 1-2.8-6 28.3 28.3 0 0 1-.9-7.2 23.2 23.2 0 0 1 1-6.9 18.1 18.1 0 0 1 3.1-5.9 14.8 14.8 0 0 1 5-4.1 15 15 0 0 1 6.9-1.5 14.4 14.4 0 0 1 6.4 1.4 11.1 11.1 0 0 1 4.6 4.6h.1v-5h9.7v34.8a25 25 0 0 1-.6 5.1zm-14-12.4a8 8 0 0 0 2.7-2.3 10.2 10.2 0 0 0 1.6-3.3 13.6 13.6 0 0 0 .5-3.9 21.1 21.1 0 0 0-.4-4.4 10.9 10.9 0 0 0-1.4-3.6 7.5 7.5 0 0 0-2.7-2.5 8.4 8.4 0 0 0-4.2-.9 7.5 7.5 0 0 0-3.7.9 7.8 7.8 0 0 0-2.6 2.3 9.9 9.9 0 0 0-1.5 3.4 16.7 16.7 0 0 0-.5 4 20.3 20.3 0 0 0 .4 4 10.8 10.8 0 0 0 1.4 3.6 8 8 0 0 0 2.6 2.6 7.2 7.2 0 0 0 4 1 8.1 8.1 0 0 0 3.8-.9z"/></symbol><symbol id="typography" viewBox="0 0 237.8 127.9"><path fill="#231f20" d="M24.3 12.5v6.8h-7.5v18.5q0 2.6.9 3.5t3.5.9h1.7l1.5-.2v7.9l-2.9.3h-3.1a29.9 29.9 0 0 1-4.5-.3 10.6 10.6 0 0 1-3.7-1.3 6.7 6.7 0 0 1-2.6-2.7 9.5 9.5 0 0 1-.9-4.5v-22H.4v-6.9h6.2V1.4h10.2v11.1zM43 60.8q-3 1.9-8.2 1.9h-3.2l-3.1-.3V54l3 .3h3a4 4 0 0 0 3-1.6 5.1 5.1 0 0 0 1-3 6.2 6.2 0 0 0-.4-2.3L25 12.5h10.9L44.3 38h.1l8.1-25.5h10.6L47.6 54.4a12.6 12.6 0 0 1-4.6 6.4zm33.3-48.3v4.8h.1a11.2 11.2 0 0 1 4.8-4.4 14.6 14.6 0 0 1 6.3-1.4 16.1 16.1 0 0 1 7.6 1.7 15.6 15.6 0 0 1 5.3 4.4 18.6 18.6 0 0 1 3.1 6.4 28.3 28.3 0 0 1 1 7.6 25.6 25.6 0 0 1-1 7.2 18.3 18.3 0 0 1-3.1 6.1 15.1 15.1 0 0 1-5.1 4.2 15.4 15.4 0 0 1-7.2 1.6 14.5 14.5 0 0 1-6.4-1.4 12.1 12.1 0 0 1-4.7-4.2h-.1v17.7H66.6V12.5zM89.6 42a8.2 8.2 0 0 0 2.7-2.6 10.8 10.8 0 0 0 1.5-3.8 22.3 22.3 0 0 0 .4-4.4 20.7 20.7 0 0 0-.5-4.4 11.7 11.7 0 0 0-1.5-3.8 8.6 8.6 0 0 0-2.8-2.7 7.7 7.7 0 0 0-4.1-1 7.9 7.9 0 0 0-4.2 1 8.4 8.4 0 0 0-2.7 2.7 11.2 11.2 0 0 0-1.5 3.8 22.7 22.7 0 0 0-.4 4.5 20.6 20.6 0 0 0 .5 4.4 11.3 11.3 0 0 0 1.5 3.8A8.7 8.7 0 0 0 89.6 42zm21.2-18.9a17 17 0 0 1 9.9-10.2 21.2 21.2 0 0 1 7.9-1.4 21.5 21.5 0 0 1 8 1.4 17 17 0 0 1 10 10.2 22.9 22.9 0 0 1 1.4 8.1 22.6 22.6 0 0 1-1.4 8.1 17.5 17.5 0 0 1-3.9 6.2 16.9 16.9 0 0 1-6.1 3.9 22 22 0 0 1-8 1.4 21.8 21.8 0 0 1-7.9-1.4 17 17 0 0 1-6-3.9 17.4 17.4 0 0 1-3.9-6.2 22.5 22.5 0 0 1-1.4-8.1 22.8 22.8 0 0 1 1.4-8.1zm9.3 12.5a11.6 11.6 0 0 0 1.5 3.8 7.8 7.8 0 0 0 2.8 2.7 8.5 8.5 0 0 0 4.3 1 8.7 8.7 0 0 0 4.4-1 7.8 7.8 0 0 0 2.8-2.7 11.6 11.6 0 0 0 1.5-3.8 21.8 21.8 0 0 0 .4-4.4 22.3 22.3 0 0 0-.4-4.4 11.2 11.2 0 0 0-1.5-3.8 8.2 8.2 0 0 0-2.8-2.7 8.4 8.4 0 0 0-4.4-1 7.9 7.9 0 0 0-7.1 3.7 11.2 11.2 0 0 0-1.5 3.8 22.3 22.3 0 0 0-.4 4.4 21.8 21.8 0 0 0 .4 4.3zm-81 80.9a12.6 12.6 0 0 1-2.6 5.4 15.7 15.7 0 0 1-5.8 4.2 25.1 25.1 0 0 1-10.2 1.7 23.8 23.8 0 0 1-5.6-.7 17.7 17.7 0 0 1-5.3-2.1 12.7 12.7 0 0 1-3.9-3.7 10.7 10.7 0 0 1-1.7-5.5h10.1a5.8 5.8 0 0 0 2.8 4 10.1 10.1 0 0 0 4.8 1.1q4.3 0 6.3-2.6a10.2 10.2 0 0 0 1.9-6.6v-4.9h-.1a10.1 10.1 0 0 1-4.7 4.4 15.3 15.3 0 0 1-6.4 1.4 16.3 16.3 0 0 1-7.2-1.5 13.6 13.6 0 0 1-5-4 16.8 16.8 0 0 1-2.8-6 28.3 28.3 0 0 1-.9-7.2 23.2 23.2 0 0 1 1-6.9 18.1 18.1 0 0 1 3.1-5.9 14.8 14.8 0 0 1 5-4.1 15 15 0 0 1 6.9-1.5 14.4 14.4 0 0 1 6.4 1.4 11.1 11.1 0 0 1 4.6 4.6h.2v-5h9.7v34.8a25 25 0 0 1-.6 5.2zm-14-12.4a8 8 0 0 0 2.7-2.3 10.2 10.2 0 0 0 1.6-3.3 13.6 13.6 0 0 0 .5-3.9 21.1 21.1 0 0 0-.4-4.4 10.9 10.9 0 0 0-1.4-3.6 7.5 7.5 0 0 0-2.7-2.5 8.4 8.4 0 0 0-4.2-.9 7.5 7.5 0 0 0-3.7.9 7.8 7.8 0 0 0-2.6 2.3 9.9 9.9 0 0 0-1.5 3.4 16.7 16.7 0 0 0-.5 4 20.3 20.3 0 0 0 .4 4 10.8 10.8 0 0 0 1.4 3.6 8 8 0 0 0 2.6 2.6 7.2 7.2 0 0 0 4 1 8.1 8.1 0 0 0 3.8-.9zm32.5-27.6v6.9h.1a12.6 12.6 0 0 1 1.9-3.2 12.8 12.8 0 0 1 2.8-2.5 13.7 13.7 0 0 1 3.4-1.6 12.2 12.2 0 0 1 3.7-.6 8 8 0 0 1 2.2.4v9.5l-1.7-.3h-1.8a10.9 10.9 0 0 0-4.8.9 8.2 8.2 0 0 0-3.1 2.6 10.2 10.2 0 0 0-1.7 3.8 20.5 20.5 0 0 0-.5 4.7v16.8H47.9V76.5zM75.5 88a11.9 11.9 0 0 1 1.8-6 12.3 12.3 0 0 1 4-3.8 17.6 17.6 0 0 1 5.5-2.1 31.4 31.4 0 0 1 6.2-.6 41.8 41.8 0 0 1 5.7.4 17.4 17.4 0 0 1 5.3 1.5 10.4 10.4 0 0 1 3.9 3.2 9 9 0 0 1 1.5 5.4v19.4a38.8 38.8 0 0 0 .3 4.8 8.7 8.7 0 0 0 1 3.5h-10.5a14.5 14.5 0 0 1-.5-1.8 15.2 15.2 0 0 1-.3-1.8 13.3 13.3 0 0 1-5.8 3.5 23.1 23.1 0 0 1-6.8 1 18.3 18.3 0 0 1-5-.6 11.4 11.4 0 0 1-4-2 9.4 9.4 0 0 1-2.7-3.5 11.7 11.7 0 0 1-1-5 10.8 10.8 0 0 1 1.1-5.2 9.3 9.3 0 0 1 2.9-3.3 12.9 12.9 0 0 1 4-1.8l4.6-1 4.5-.6 4-.6a6.9 6.9 0 0 0 2.7-1.3 2.8 2.8 0 0 0 .9-2.4 5.4 5.4 0 0 0-.5-2.6 4 4 0 0 0-1.4-1.5 5.7 5.7 0 0 0-2.1-.7l-2.6-.2a7.8 7.8 0 0 0-4.8 1.3 5.8 5.8 0 0 0-2 4.3zm23.6 7.6a4.6 4.6 0 0 1-1.6.9l-2.1.5-2.3.4-2.4.4-2.3.6a6.7 6.7 0 0 0-1.9 1 4.6 4.6 0 0 0-1.3 1.5 5 5 0 0 0-.5 2.4 4.8 4.8 0 0 0 .5 2.3 3.9 3.9 0 0 0 1.4 1.5 5.8 5.8 0 0 0 2 .8l2.4.2a9 9 0 0 0 4.7-1 6.8 6.8 0 0 0 2.4-2.4 7.7 7.7 0 0 0 1-2.8 19.7 19.7 0 0 0 .2-2.3zm27.8-19.1v4.8h.1a11.2 11.2 0 0 1 4.8-4.4 14.6 14.6 0 0 1 6.3-1.4 16.1 16.1 0 0 1 7.6 1.7 15.6 15.6 0 0 1 5.3 4.4 18.6 18.6 0 0 1 3.1 6.4 28.3 28.3 0 0 1 1 7.6 25.6 25.6 0 0 1-1 7.2 18.3 18.3 0 0 1-3.1 6.1 15.1 15.1 0 0 1-5.1 4.2 15.4 15.4 0 0 1-7.2 1.6 14.5 14.5 0 0 1-6.4-1.4 12.1 12.1 0 0 1-4.8-4.1h-.1v17.6h-10.2V76.5zm13.3 29.5a8.2 8.2 0 0 0 2.7-2.6 10.8 10.8 0 0 0 1.5-3.8 22.3 22.3 0 0 0 .4-4.4 20.7 20.7 0 0 0-.5-4.4 11.7 11.7 0 0 0-1.5-3.9 8.6 8.6 0 0 0-2.8-2.7 7.7 7.7 0 0 0-4.1-1 7.9 7.9 0 0 0-4.2 1A8.4 8.4 0 0 0 129 87a11.2 11.2 0 0 0-1.5 3.8 22.7 22.7 0 0 0-.4 4.5 20.6 20.6 0 0 0 .5 4.4 11.3 11.3 0 0 0 1.5 3.8 8.7 8.7 0 0 0 11.2 2.6zm31.2-43.7v19.4h.2a11.8 11.8 0 0 1 5-4.7 13.4 13.4 0 0 1 5.9-1.5 17.4 17.4 0 0 1 6.7 1.1 10 10 0 0 1 4.1 3.1 12 12 0 0 1 2.1 4.8 30.1 30.1 0 0 1 .6 6.3v22.9h-10.1v-21q0-4.6-1.4-6.9t-5.1-2.3q-4.2 0-6 2.5t-1.9 8.2v19.5h-10.3V62.3zm46.3 62.5q-3 1.9-8.2 1.9h-3.1l-3.1-.3V118l3 .3h3a4 4 0 0 0 3-1.6 5.1 5.1 0 0 0 1-3 6.2 6.2 0 0 0-.4-2.3l-13-34.9h10.9l8.4 25.5h.1l8.1-25.5H238l-15.6 41.8a12.6 12.6 0 0 1-4.7 6.5z"/></symbol></svg>