<?xml version="1.0" encoding="utf-8"?>
<!-- Generator: Adobe Illustrator 21.1.0, SVG Export Plug-In . SVG Version: 6.00 Build 0)  -->
<svg version="1.1" id="Layer_1" xmlns="http://www.w3.org/2000/svg" xmlns:xlink="http://www.w3.org/1999/xlink" x="0px" y="0px"
	 viewBox="0 0 266.4 266.4" style="enable-background:new 0 0 266.4 266.4;" xml:space="preserve">
<style type="text/css">
	.st0{fill:#808080;}
</style>
<path class="st0" d="M137.3,36.8c30.6,0,34.2,0.1,46.3,0.7s17.2,2.4,21.3,4c4.9,1.8,9.4,4.7,13.1,8.5c3.8,3.7,6.7,8.2,8.5,13.2
	c1.5,4,3.5,10.1,4,21.3s0.7,15.7,0.7,46.3s-0.1,34.2-0.7,46.3s-2.4,17.2-4,21.3c-3.9,9.9-11.8,17.8-21.7,21.6
	c-4,1.5-10.1,3.5-21.3,4s-15.7,0.7-46.3,0.7s-34.2-0.1-46.3-0.7s-17.2-2.4-21.3-4c-10-3.9-17.8-11.8-21.6-21.8
	c-1.5-4-3.5-10.1-4-21.3s-0.7-15.7-0.7-46.3s0.1-34.2,0.7-46.3s2.4-17.2,4-21.3c1.8-4.9,4.7-9.4,8.5-13c3.7-3.8,8.2-6.7,13.2-8.5
	c4-1.5,10.1-3.5,21.3-4S106.7,36.8,137.3,36.8 M137.3,16.2c-31.1,0-35,0.1-47.2,0.7s-20.5,2.5-27.8,5.3c-7.6,2.9-14.6,7.4-20.3,13.2
	C36.2,41.1,31.7,48,28.8,55.6C26,62.9,24,71.2,23.5,83.5s-0.7,16.1-0.7,47.2s0.1,35,0.7,47.2s2.5,20.5,5.3,27.8
	c6,15.4,18.1,27.5,33.5,33.5c7.3,2.8,15.6,4.8,27.8,5.3s16.1,0.7,47.2,0.7s35-0.1,47.2-0.7s20.5-2.5,27.8-5.3
	c15.4-6,27.5-18.1,33.4-33.5c2.8-7.3,4.8-15.6,5.3-27.8s0.7-16.1,0.7-47.2s-0.1-35-0.7-47.2s-2.5-20.5-5.3-27.7
	c-2.9-7.6-7.4-14.6-13.2-20.3c-5.7-5.8-12.7-10.3-20.3-13.2c-7.3-2.8-15.6-4.8-27.8-5.3s-16.1-0.7-47.2-0.7L137.3,16.2z"/>
<path class="st0" d="M137.3,71.8c-32.5,0-58.8,26.3-58.8,58.8s26.3,58.8,58.8,58.8s58.8-26.3,58.8-58.8S169.8,71.8,137.3,71.8
	L137.3,71.8z M137.3,168.8c-21.1,0-38.2-17.1-38.2-38.2s17.1-38.2,38.2-38.2s38.2,17.1,38.2,38.2c0,0,0,0,0,0
	C175.5,151.7,158.4,168.8,137.3,168.8z"/>
<circle class="st0" cx="198.4" cy="69.5" r="13.7"/>
</svg>
