<svg xmlns="http://www.w3.org/2000/svg"><symbol id="marwan-black" viewBox="0 0 436.5 245.4"><path fill="#27150d" d="M301.5 229.3c1.7 6.4-2.8 11.1-13.1 14.4-14.7 4.7-25.1-.5-33-17.4-1.4 2.5-2.2 5.5-4.2 7.3-10.3 9.7-22.3 13.5-36.3 9.8-10.3-2.8-16.7-9.6-18.3-19.9s-.9-22.1 9.9-27.9 25.4-11.9 38.4-17.2 12.1-4.5 11.9-17.4a77.1 77.1 0 0 0-1.5-14.9c-1.5-6.9-6.5-10.7-13.5-10.6s-11.5 4.4-13 11.2a42.3 42.3 0 0 0-.7 9.9 92.4 92.4 0 0 0 1.3 9.7c-5.1.7-10 1.5-14.9 2s-9.8-3-11.3-8.7a21 21 0 0 1 10.4-23.9c18-9.4 36.8-9.6 55.5-2.8 12.3 4.5 16.8 15 16.8 27.5.1 17.5 0 35 0 52.5 0 1.9-.1 3.8 0 5.8 1 11.9 3.8 13.9 15.6 10.6zM257 181.7c-9.1 4.3-17.6 7.4-25.2 12.1s-9.4 19.2-3.7 27.8c4.6 7 14.8 8.4 23.7 2.8 2.2-1.4 4.9-3.9 5-6 .5-11.6.2-23.3.2-36.7zm44.5-80.7c1.7 6.4-2.8 11.1-13.1 14.4-14.7 4.7-25.1-.5-33-17.4-1.4 2.5-2.2 5.5-4.2 7.3-10.3 9.7-22.3 13.5-36.3 9.8-10.3-2.8-16.7-9.6-18.3-19.9s-.9-22.1 9.9-27.9 25.4-11.9 38.4-17.2 12.1-4.5 11.9-17.4a77.1 77.1 0 0 0-1.5-14.9c-1.5-6.9-6.5-10.7-13.5-10.6s-11.5 4.4-13 11.2a42.3 42.3 0 0 0-.7 9.9 92.4 92.4 0 0 0 1.3 9.7c-5.1.7-10 1.5-14.9 2s-9.8-3-11.3-8.7a21 21 0 0 1 10.6-23.8c18-9.4 36.8-9.6 55.5-2.8 12.3 4.5 16.8 15 16.8 27.5.1 17.5 0 35 0 52.5 0 1.9-.1 3.8 0 5.8.8 11.7 3.6 13.7 15.4 10.5zM257 53.4c-9.1 4.3-17.6 7.4-25.2 12.1s-9.4 19.2-3.7 27.8c4.6 7 14.8 8.4 23.7 2.8 2.2-1.4 4.9-3.9 5-6 .5-11.7.2-23.4.2-36.7zM388.4 8.9a8.9 8.9 0 0 0-5-6.1c-8-2.6-15.8.6-21.1 8.4-3.8 5.6-7.1 11.7-11.4 19V.7c-14.1 4.3-27.2 8.2-40.3 12.4-.6.2-.9 4.6.2 5.8s5.1 2.7 7.2 4.6 3.5 4.1 3.5 6.2c.2 22.5.2 45.1.1 67.6v.9a13 13 0 0 1-1.5 6.1l-.7 1a7.7 7.7 0 0 1-3.2 2.3c-.9.4-4.9 1.1-4.9 1.1-2.1.6-3 1.3-3.2 2.9a7.9 7.9 0 0 0 0 .9v.2c0 .9 0 2 .1 3.4h59.9c0-.7.2-3.8.1-4.5v-.5c-.4-2.1-2.1-2.4-6.8-3.4s-8.5-2.3-9.6-5.4a21.9 21.9 0 0 1-.7-6.9c0-16.8-.1-33.6.1-50.4 0-2.4.6-5.9 2.2-6.9 4.9-3.2 10.1-6.4 15.7-7.9s13.1-1.7 19.9-2.4c-.4-6.5.1-12.8-.6-18.9zm-69 96.5a7.4 7.4 0 0 1-2.3 1.9 7.5 7.5 0 0 0 2.3-1.9zm-2.7 2.1l-.5.2zm-1 .4l-.5.2zm120.8 130.5v-.5c-.4-2.1-2.1-2.4-6.8-3.4s-8.4-2.2-9.5-5.2a18.8 18.8 0 0 1-.8-6.4c.3-21.1.2-42.2.1-63.4s-14.1-33.5-35.6-30.8c-10.7 1.4-19.4 6.4-27.1 13.6l-6.5 5.9v-20.6c-12.8 3.9-24.8 7.4-36.6 11.3l-3.6 1.2c-.2.1-.3.5-.4 1.2a11.4 11.4 0 0 0-.1 2.3 4.2 4.2 0 0 0 .7 2.3c1.8 2 5.1 2.7 7.2 4.6s3.5 4.1 3.5 6.2l.3 7.6c-.3 18-.1 35.9-.1 53.9 0 3 0 5.4-.1 7.4a12.7 12.7 0 0 1-2.1 5.4l-.7 1-1.2 1.2-.3.2-2.3 1.1-4.3.9c-2.1.6-3 1.3-3.2 2.9a9.5 9.5 0 0 0-.1 1v.2c0 .9 0 2 .1 3.4l56.6.2c0-.7.2-3.8.1-4.5v-.5c-.4-2.1-2.1-2.3-6.8-3.4s-4.9-2.4-6-5.6a13.7 13.7 0 0 1-.6-3.3c.3-22 0-44 .2-66 0-1.9.8-4.9 2.1-5.5 6.2-2.9 12.6-6.3 19.2-7.2 11.7-1.6 17.8 4.2 17.9 15.9.2 20.8-.1 41.6 0 62.4a12.5 12.5 0 0 1-1.4 5.5l-.7 1-1.2 1.2-.9.6-1.1.6c-.9.4-4.9 1.1-4.9 1.1-2.1.6-3 1.3-3.2 2.9a9.5 9.5 0 0 0-.1 1v.2c0 .9 0 2 .1 3.4h60.3c-.1-.7 0-3.8-.1-4.5zM191.2 111.7c-.2-1.7-1-2.4-3.2-2.9l-3-.6a24.7 24.7 0 0 1-3.6-1.4l-.4-.2-1.2-1.2-.7-1a12.5 12.5 0 0 1-1.4-5.5h-.1c0-1.4-.1-2.9-.1-4.8 0-20.2.1-40.3 0-60.5C177.4 17 170 5.5 157.9 3s-24.4-.7-34.7 7.2c-4.5 3.4-8.6 7.4-12.9 11.1C102.7 5.5 95.1 1.2 79.6 1.9S55 10.6 44.7 21.6V.9h-.1l-.7.2c-13.8 4.2-26.7 8-39.5 12.2-.2.1-.4.6-.5 1.4a11.5 11.5 0 0 0 0 2 4.4 4.4 0 0 0 .7 2.4 11.5 11.5 0 0 0 3.6 2.4 15.4 15.4 0 0 1 3.6 2.2c1.7 1.6 3.5 4.1 3.5 6.2v11.3c-.3 17-.1 34-.1 50.9 0 2.8 0 5-.1 6.8a14.5 14.5 0 0 1-.6 3.7c-1.1 3.1-3.7 4.2-9.6 5.4s-4.4 1.2-4.8 3.3v.5c-.1.7 0 3.8.1 4.5h58c.1-1.4.1-2.5.1-3.4v-.2a9.5 9.5 0 0 0-.1-1c-.2-1.7-1-2.4-3.2-2.9 0 0-4-.7-4.9-1.1l-1.2-.5-.9-.6-1.2-1.2-.7-1a12.3 12.3 0 0 1-1.4-5.5c.1-21.8 0-43.7.1-65.5 0-1.9.6-5 1.9-5.6 5.7-2.9 11.5-6.4 17.6-7.3C75 18.7 80.9 24 81.1 34.8c.5 21.6.3 43.2.4 64.8 0 .3 0 .6-.1.9a11.3 11.3 0 0 1-.5 2.1c-1.1 3.1-3.8 4-9.6 5.4-2.8.7-4 1.2-4.5 3.3v.5c-.1.7 0 3.8.1 4.5h57.8c.1-1.4.1-2.5.1-3.4v-.2a9.5 9.5 0 0 0-.1-1c-.2-1.7-1-2.4-3.2-2.9 0 0-4-.7-4.9-1.1l-1.1-.6-.9-.6-1.2-1.2-.7-1a11.9 11.9 0 0 1-1.4-4.9c.1-22.2-.1-44.4.2-66.5a9 9 0 0 1 3.4-6.3 43 43 0 0 1 11.5-5.7c12.2-3.9 20.9 1.8 21.2 14.5.5 21.1.1 42.3.1 63.5a14.3 14.3 0 0 1-.7 3.7c-1.1 3.1-3.8 4-9.6 5.4-2.8.7-4 1.2-4.5 3.3v.5c-.1.7 0 3.8.1 4.5h58.2c.1-1.4.1-2.5.1-3.4v-.2a9.5 9.5 0 0 0-.1-1zM.1 134.5c.2 1.7 1 2.4 3.2 2.9l3 .6a24.7 24.7 0 0 1 3.6 1.4l.4.2 1.2 1.2.7 1a12.5 12.5 0 0 1 1.4 5.5h.1c0 1.4.1 2.9.1 4.8 0 20.2-.1 40.3 0 60.5.1 16.6 7.5 28.1 19.6 30.6s24.4.7 34.7-7.2c4.5-3.4 8.6-7.4 12.9-11.1 7.6 15.7 15.2 20.1 30.7 19.4s24.5-8.7 34.9-19.7v20.7h.1l.7-.2c13.8-4.2 26.7-8 39.5-12.2.2-.1.4-.6.5-1.4a11.5 11.5 0 0 0 0-2 4.4 4.4 0 0 0-.7-2.4 11.5 11.5 0 0 0-3.6-2.4 15.4 15.4 0 0 1-3.6-2.2c-1.7-1.6-3.5-4.1-3.5-6.2v-11.2c.3-17 .1-34 .1-50.9 0-2.8 0-5 .1-6.8a14.5 14.5 0 0 1 .6-3.7c1.1-3.1 3.7-4.2 9.6-5.4s4.4-1.3 4.8-3.4v-.5c.1-.7 0-3.8-.1-4.5H133c-.1 1.4-.1 2.5-.1 3.4v.2a9.5 9.5 0 0 0 .1 1c.2 1.7 1 2.4 3.2 2.9 0 0 4 .7 4.9 1.1l1.2.5.9.6 1.2 1.2.7 1a12.3 12.3 0 0 1 1.4 5.5c-.1 21.8 0 43.7-.1 65.5 0 1.9-.6 5-1.9 5.6-5.7 2.9-11.5 6.4-17.6 7.3-10.7 1.7-16.5-3.6-16.8-14.4-.5-21.6-.3-43.2-.4-64.8 0-.3 0-.6.1-.9a11.3 11.3 0 0 1 .5-2.1c1.1-3.1 3.8-4 9.6-5.4 2.8-.7 4-1.2 4.5-3.3v-.5c.1-.7 0-3.8-.1-4.5H66.6c-.1 1.4-.1 2.5-.1 3.4v.2a9.5 9.5 0 0 0 .1 1c.2 1.7 1 2.4 3.2 2.9 0 0 4 .7 4.9 1.1l1.1.6.9.6 1.2 1.2.7 1a11.9 11.9 0 0 1 1.4 4.9c-.1 22.2.1 44.4-.2 66.5a9 9 0 0 1-3.4 6.3 43 43 0 0 1-11.5 5.7c-12.2 3.9-20.9-1.8-21.2-14.5-.5-21.1-.1-42.3-.1-63.5a14.3 14.3 0 0 1 .7-3.7c1.1-3.1 3.8-4 9.6-5.4 2.8-.7 4-1.2 4.5-3.3v-.5c.1-.7 0-3.8-.1-4.5H.1c-.1 1.4-.1 2.5-.1 3.4v.2a9.5 9.5 0 0 0 .1 1.1z"/></symbol><symbol id="marwan-white" viewBox="0 0 436.5 245.4"><path fill="#fff" d="M301.5 229.3c1.7 6.4-2.8 11.1-13.1 14.4-14.7 4.7-25.1-.5-33-17.4-1.4 2.5-2.2 5.5-4.2 7.3-10.3 9.7-22.3 13.5-36.3 9.8-10.3-2.8-16.7-9.6-18.3-19.9s-.9-22.1 9.9-27.9 25.4-11.9 38.4-17.2 12.1-4.5 11.9-17.4a77.1 77.1 0 0 0-1.5-14.9c-1.5-6.9-6.5-10.7-13.5-10.6s-11.5 4.4-13 11.2a42.3 42.3 0 0 0-.7 9.9 92.4 92.4 0 0 0 1.3 9.7c-5.1.7-10 1.5-14.9 2s-9.8-3-11.3-8.7a21 21 0 0 1 10.4-23.9c18-9.4 36.8-9.6 55.5-2.8 12.3 4.5 16.8 15 16.8 27.5.1 17.5 0 35 0 52.5 0 1.9-.1 3.8 0 5.8 1 11.9 3.8 13.9 15.6 10.6zM257 181.7c-9.1 4.3-17.6 7.4-25.2 12.1s-9.4 19.2-3.7 27.8c4.6 7 14.8 8.4 23.7 2.8 2.2-1.4 4.9-3.9 5-6 .5-11.6.2-23.3.2-36.7zm44.5-80.7c1.7 6.4-2.8 11.1-13.1 14.4-14.7 4.7-25.1-.5-33-17.4-1.4 2.5-2.2 5.5-4.2 7.3-10.3 9.7-22.3 13.5-36.3 9.8-10.3-2.8-16.7-9.6-18.3-19.9s-.9-22.1 9.9-27.9 25.4-11.9 38.4-17.2 12.1-4.5 11.9-17.4a77.1 77.1 0 0 0-1.5-14.9c-1.5-6.9-6.5-10.7-13.5-10.6s-11.5 4.4-13 11.2a42.3 42.3 0 0 0-.7 9.9 92.4 92.4 0 0 0 1.3 9.7c-5.1.7-10 1.5-14.9 2s-9.8-3-11.3-8.7a21 21 0 0 1 10.6-23.8c18-9.4 36.8-9.6 55.5-2.8 12.3 4.5 16.8 15 16.8 27.5.1 17.5 0 35 0 52.5 0 1.9-.1 3.8 0 5.8.8 11.7 3.6 13.7 15.4 10.5zM257 53.4c-9.1 4.3-17.6 7.4-25.2 12.1s-9.4 19.2-3.7 27.8c4.6 7 14.8 8.4 23.7 2.8 2.2-1.4 4.9-3.9 5-6 .5-11.7.2-23.4.2-36.7zM388.4 8.9a8.9 8.9 0 0 0-5-6.1c-8-2.6-15.8.6-21.1 8.4-3.8 5.6-7.1 11.7-11.4 19V.7c-14.1 4.3-27.2 8.2-40.3 12.4-.6.2-.9 4.6.2 5.8s5.1 2.7 7.2 4.6 3.5 4.1 3.5 6.2c.2 22.5.2 45.1.1 67.6v.9a13 13 0 0 1-1.5 6.1l-.7 1a7.7 7.7 0 0 1-3.2 2.3c-.9.4-4.9 1.1-4.9 1.1-2.1.6-3 1.3-3.2 2.9a7.9 7.9 0 0 0 0 .9v.2c0 .9 0 2 .1 3.4h59.9c0-.7.2-3.8.1-4.5v-.5c-.4-2.1-2.1-2.4-6.8-3.4s-8.5-2.3-9.6-5.4a21.9 21.9 0 0 1-.7-6.9c0-16.8-.1-33.6.1-50.4 0-2.4.6-5.9 2.2-6.9 4.9-3.2 10.1-6.4 15.7-7.9s13.1-1.7 19.9-2.4c-.4-6.5.1-12.8-.6-18.9zm-69 96.5a7.4 7.4 0 0 1-2.3 1.9 7.5 7.5 0 0 0 2.3-1.9zm-2.7 2.1l-.5.2zm-1 .4l-.5.2zm120.8 130.5v-.5c-.4-2.1-2.1-2.4-6.8-3.4s-8.4-2.2-9.5-5.2a18.8 18.8 0 0 1-.8-6.4c.3-21.1.2-42.2.1-63.4s-14.1-33.5-35.6-30.8c-10.7 1.4-19.4 6.4-27.1 13.6l-6.5 5.9v-20.6c-12.8 3.9-24.8 7.4-36.6 11.3l-3.6 1.2c-.2.1-.3.5-.4 1.2a11.4 11.4 0 0 0-.1 2.3 4.2 4.2 0 0 0 .7 2.3c1.8 2 5.1 2.7 7.2 4.6s3.5 4.1 3.5 6.2l.3 7.6c-.3 18-.1 35.9-.1 53.9 0 3 0 5.4-.1 7.4a12.7 12.7 0 0 1-2.1 5.4l-.7 1-1.2 1.2-.3.2-2.3 1.1-4.3.9c-2.1.6-3 1.3-3.2 2.9a9.5 9.5 0 0 0-.1 1v.2c0 .9 0 2 .1 3.4l56.6.2c0-.7.2-3.8.1-4.5v-.5c-.4-2.1-2.1-2.3-6.8-3.4s-4.9-2.4-6-5.6a13.7 13.7 0 0 1-.6-3.3c.3-22 0-44 .2-66 0-1.9.8-4.9 2.1-5.5 6.2-2.9 12.6-6.3 19.2-7.2 11.7-1.6 17.8 4.2 17.9 15.9.2 20.8-.1 41.6 0 62.4a12.5 12.5 0 0 1-1.4 5.5l-.7 1-1.2 1.2-.9.6-1.1.6c-.9.4-4.9 1.1-4.9 1.1-2.1.6-3 1.3-3.2 2.9a9.5 9.5 0 0 0-.1 1v.2c0 .9 0 2 .1 3.4h60.3c-.1-.7 0-3.8-.1-4.5zM191.2 111.7c-.2-1.7-1-2.4-3.2-2.9l-3-.6a24.7 24.7 0 0 1-3.6-1.4l-.4-.2-1.2-1.2-.7-1a12.5 12.5 0 0 1-1.4-5.5h-.1c0-1.4-.1-2.9-.1-4.8 0-20.2.1-40.3 0-60.5C177.4 17 170 5.5 157.9 3s-24.4-.7-34.7 7.2c-4.5 3.4-8.6 7.4-12.9 11.1C102.7 5.5 95.1 1.2 79.6 1.9S55 10.6 44.7 21.6V.9h-.1l-.7.2c-13.8 4.2-26.7 8-39.5 12.2-.2.1-.4.6-.5 1.4a11.5 11.5 0 0 0 0 2 4.4 4.4 0 0 0 .7 2.4 11.5 11.5 0 0 0 3.6 2.4 15.4 15.4 0 0 1 3.6 2.2c1.7 1.6 3.5 4.1 3.5 6.2v11.3c-.3 17-.1 34-.1 50.9 0 2.8 0 5-.1 6.8a14.5 14.5 0 0 1-.6 3.7c-1.1 3.1-3.7 4.2-9.6 5.4s-4.4 1.2-4.8 3.3v.5c-.1.7 0 3.8.1 4.5h58c.1-1.4.1-2.5.1-3.4v-.2a9.5 9.5 0 0 0-.1-1c-.2-1.7-1-2.4-3.2-2.9 0 0-4-.7-4.9-1.1l-1.2-.5-.9-.6-1.2-1.2-.7-1a12.3 12.3 0 0 1-1.4-5.5c.1-21.8 0-43.7.1-65.5 0-1.9.6-5 1.9-5.6 5.7-2.9 11.5-6.4 17.6-7.3C75 18.7 80.9 24 81.1 34.8c.5 21.6.3 43.2.4 64.8 0 .3 0 .6-.1.9a11.3 11.3 0 0 1-.5 2.1c-1.1 3.1-3.8 4-9.6 5.4-2.8.7-4 1.2-4.5 3.3v.5c-.1.7 0 3.8.1 4.5h57.8c.1-1.4.1-2.5.1-3.4v-.2a9.5 9.5 0 0 0-.1-1c-.2-1.7-1-2.4-3.2-2.9 0 0-4-.7-4.9-1.1l-1.1-.6-.9-.6-1.2-1.2-.7-1a11.9 11.9 0 0 1-1.4-4.9c.1-22.2-.1-44.4.2-66.5a9 9 0 0 1 3.4-6.3 43 43 0 0 1 11.5-5.7c12.2-3.9 20.9 1.8 21.2 14.5.5 21.1.1 42.3.1 63.5a14.3 14.3 0 0 1-.7 3.7c-1.1 3.1-3.8 4-9.6 5.4-2.8.7-4 1.2-4.5 3.3v.5c-.1.7 0 3.8.1 4.5h58.2c.1-1.4.1-2.5.1-3.4v-.2a9.5 9.5 0 0 0-.1-1zM.1 134.5c.2 1.7 1 2.4 3.2 2.9l3 .6a24.7 24.7 0 0 1 3.6 1.4l.4.2 1.2 1.2.7 1a12.5 12.5 0 0 1 1.4 5.5h.1c0 1.4.1 2.9.1 4.8 0 20.2-.1 40.3 0 60.5.1 16.6 7.5 28.1 19.6 30.6s24.4.7 34.7-7.2c4.5-3.4 8.6-7.4 12.9-11.1 7.6 15.7 15.2 20.1 30.7 19.4s24.5-8.7 34.9-19.7v20.7h.1l.7-.2c13.8-4.2 26.7-8 39.5-12.2.2-.1.4-.6.5-1.4a11.5 11.5 0 0 0 0-2 4.4 4.4 0 0 0-.7-2.4 11.5 11.5 0 0 0-3.6-2.4 15.4 15.4 0 0 1-3.6-2.2c-1.7-1.6-3.5-4.1-3.5-6.2v-11.2c.3-17 .1-34 .1-50.9 0-2.8 0-5 .1-6.8a14.5 14.5 0 0 1 .6-3.7c1.1-3.1 3.7-4.2 9.6-5.4s4.4-1.3 4.8-3.4v-.5c.1-.7 0-3.8-.1-4.5H133c-.1 1.4-.1 2.5-.1 3.4v.2a9.5 9.5 0 0 0 .1 1c.2 1.7 1 2.4 3.2 2.9 0 0 4 .7 4.9 1.1l1.2.5.9.6 1.2 1.2.7 1a12.3 12.3 0 0 1 1.4 5.5c-.1 21.8 0 43.7-.1 65.5 0 1.9-.6 5-1.9 5.6-5.7 2.9-11.5 6.4-17.6 7.3-10.7 1.7-16.5-3.6-16.8-14.4-.5-21.6-.3-43.2-.4-64.8 0-.3 0-.6.1-.9a11.3 11.3 0 0 1 .5-2.1c1.1-3.1 3.8-4 9.6-5.4 2.8-.7 4-1.2 4.5-3.3v-.5c.1-.7 0-3.8-.1-4.5H66.6c-.1 1.4-.1 2.5-.1 3.4v.2a9.5 9.5 0 0 0 .1 1c.2 1.7 1 2.4 3.2 2.9 0 0 4 .7 4.9 1.1l1.1.6.9.6 1.2 1.2.7 1a11.9 11.9 0 0 1 1.4 4.9c-.1 22.2.1 44.4-.2 66.5a9 9 0 0 1-3.4 6.3 43 43 0 0 1-11.5 5.7c-12.2 3.9-20.9-1.8-21.2-14.5-.5-21.1-.1-42.3-.1-63.5a14.3 14.3 0 0 1 .7-3.7c1.1-3.1 3.8-4 9.6-5.4 2.8-.7 4-1.2 4.5-3.3v-.5c.1-.7 0-3.8-.1-4.5H.1c-.1 1.4-.1 2.5-.1 3.4v.2a9.5 9.5 0 0 0 .1 1.1z"/></symbol></svg>